<svg width="12" height="12" viewBox="0 0 12 12" fill="none" xmlns="http://www.w3.org/2000/svg">
    <path
        d="M10.9989 5.00019H3.40892L6.70892 1.71019C6.89722 1.52188 7.00301 1.26649 7.00301 1.00019C7.00301 0.733884 6.89722 0.478489 6.70892 0.290185C6.52062 0.101882 6.26522 -0.00390625 5.99892 -0.00390625C5.73262 -0.00390625 5.47722 0.101882 5.28892 0.290185L0.28892 5.29019C0.197879 5.38529 0.126514 5.49743 0.0789198 5.62019C-0.0210983 5.86365 -0.0210983 6.13672 0.0789198 6.38019C0.126514 6.50294 0.197879 6.61508 0.28892 6.71019L5.28892 11.7102C5.38188 11.8039 5.49248 11.8783 5.61434 11.9291C5.7362 11.9798 5.86691 12.006 5.99892 12.006C6.13093 12.006 6.26164 11.9798 6.3835 11.9291C6.50536 11.8783 6.61596 11.8039 6.70892 11.7102C6.80265 11.6172 6.87704 11.5066 6.92781 11.3848C6.97858 11.2629 7.00472 11.1322 7.00472 11.0002C7.00472 10.8682 6.97858 10.7375 6.92781 10.6156C6.87704 10.4937 6.80265 10.3831 6.70892 10.2902L3.40892 7.00019H10.9989C11.2641 7.00019 11.5185 6.89483 11.706 6.70729C11.8936 6.51976 11.9989 6.2654 11.9989 6.00019C11.9989 5.73497 11.8936 5.48062 11.706 5.29308C11.5185 5.10554 11.2641 5.00019 10.9989 5.00019Z"
        fill="black" />
</svg>