<svg width="36" height="38" viewBox="0 0 36 38" fill="none" xmlns="http://www.w3.org/2000/svg">
<path fill-rule="evenodd" clip-rule="evenodd" d="M0.762939 7.55923C0.762939 5.59033 1.54508 3.70208 2.9373 2.30986C4.32952 0.917639 6.21777 0.135498 8.18667 0.135498H32.9324C33.392 0.135498 33.8425 0.26347 34.2334 0.505074C34.6243 0.746678 34.9402 1.09237 35.1458 1.50341C35.3513 1.91445 35.4383 2.3746 35.397 2.83231C35.3557 3.29001 35.1878 3.72717 34.9121 4.09482L28.6019 12.5084L34.9121 20.9219C35.1878 21.2896 35.3557 21.7268 35.397 22.1845C35.4383 22.6422 35.3513 23.1023 35.1458 23.5133C34.9402 23.9244 34.6243 24.2701 34.2334 24.5117C33.8425 24.7533 33.392 24.8813 32.9324 24.8813H8.18667C7.53037 24.8813 6.90095 25.142 6.43688 25.606C5.97281 26.0701 5.71209 26.6995 5.71209 27.3558V34.7796C5.71209 35.4359 5.45138 36.0653 4.98731 36.5294C4.52323 36.9934 3.89381 37.2541 3.23752 37.2541C2.58122 37.2541 1.9518 36.9934 1.48773 36.5294C1.02365 36.0653 0.762939 35.4359 0.762939 34.7796V7.55923Z" fill="#F76659"/>
</svg>
