<svg width="36" height="38" viewBox="0 0 36 38" fill="none" xmlns="http://www.w3.org/2000/svg">
<path fill-rule="evenodd" clip-rule="evenodd" d="M0.762939 7.44057C0.762939 5.47168 1.54508 3.58343 2.9373 2.19121C4.32952 0.798987 6.21777 0.0168457 8.18667 0.0168457H32.9324C33.392 0.0168457 33.8425 0.144818 34.2334 0.386422C34.6243 0.628026 34.9402 0.973716 35.1458 1.38476C35.3513 1.7958 35.4383 2.25595 35.397 2.71365C35.3557 3.17135 35.1878 3.60852 34.9121 3.97617L28.6019 12.3897L34.9121 20.8033C35.1878 21.1709 35.3557 21.6081 35.397 22.0658C35.4383 22.5235 35.3513 22.9837 35.1458 23.3947C34.9402 23.8057 34.6243 24.1514 34.2334 24.393C33.8425 24.6346 33.392 24.7626 32.9324 24.7626H8.18667C7.53037 24.7626 6.90095 25.0233 6.43688 25.4874C5.97281 25.9515 5.71209 26.5809 5.71209 27.2372V34.6609C5.71209 35.3172 5.45138 35.9466 4.98731 36.4107C4.52323 36.8748 3.89381 37.1355 3.23752 37.1355C2.58122 37.1355 1.9518 36.8748 1.48773 36.4107C1.02365 35.9466 0.762939 35.3172 0.762939 34.6609V7.44057Z" fill="#4F9C20"/>
</svg>
