<svg width="31" height="30" viewBox="0 0 31 30" fill="none" xmlns="http://www.w3.org/2000/svg">
<path d="M17.0775 30H12.915C11.91 30 11.0925 29.1825 11.0925 28.185V25.845C10.7475 25.725 10.41 25.5825 10.08 25.425L8.43 27.075C7.7175 27.7875 6.57 27.78 5.8575 27.075L2.925 24.135C2.22 23.4225 2.22 22.275 2.925 21.5625L4.575 19.9125C4.4175 19.5825 4.2825 19.245 4.155 18.9H1.815C0.8175 18.9 0 18.0825 0 17.0775V12.915C0 11.91 0.8175 11.0925 1.815 11.0925H4.155C4.275 10.7475 4.4175 10.41 4.575 10.08L2.925 8.43C2.22 7.7175 2.22 6.57 2.925 5.8575L5.865 2.925C6.5775 2.22 7.725 2.22 8.4375 2.925L10.0875 4.575C10.4175 4.4175 10.755 4.2825 11.1 4.155V1.815C11.1 0.8175 11.9175 0 12.9225 0H17.085C18.09 0 18.9075 0.8175 18.9075 1.815V4.155C19.2525 4.275 19.59 4.4175 19.92 4.575L21.57 2.925C22.275 2.22 23.43 2.22 24.1425 2.925L27.09 5.8725C27.795 6.585 27.795 7.7325 27.09 8.445L25.44 10.095C25.5975 10.425 25.7325 10.7625 25.86 11.1075H28.2C29.205 11.1075 30.015 11.925 30.015 12.93V17.0925C30.015 18.0975 29.1975 18.915 28.2 18.915H25.86C25.74 19.26 25.5975 19.5975 25.44 19.9275L27.09 21.5775C27.795 22.29 27.795 23.4375 27.09 24.15L24.1425 27.09C23.43 27.8025 22.2825 27.8025 21.57 27.09L19.92 25.44C19.59 25.5975 19.2525 25.7325 18.9075 25.86V28.2C18.9 29.1825 18.0825 30 17.0775 30ZM13.35 27.75H16.65V25.53C16.65 24.7425 17.16 24.0525 17.91 23.805C18.345 23.6625 18.765 23.49 19.17 23.2875C19.8825 22.9275 20.73 23.0625 21.285 23.6175L22.8525 25.185L25.185 22.8525L23.6175 21.285C23.0625 20.73 22.9275 19.8825 23.2875 19.17C23.49 18.765 23.6625 18.345 23.805 17.91C24.0525 17.1525 24.75 16.65 25.53 16.65H27.75V13.35H25.53C24.7425 13.35 24.0525 12.84 23.805 12.09C23.6625 11.655 23.49 11.235 23.2875 10.83C22.9275 10.1175 23.0625 9.27 23.6175 8.715L25.185 7.1475L22.8525 4.815L21.285 6.3825C20.73 6.9375 19.8825 7.0725 19.17 6.7125C18.765 6.51 18.345 6.3375 17.91 6.195C17.16 5.9475 16.65 5.25 16.65 4.47V2.25H13.35V4.47C13.35 5.2575 12.84 5.9475 12.09 6.195C11.655 6.3375 11.235 6.51 10.83 6.7125C10.1175 7.0725 9.27 6.9375 8.715 6.3825L7.1475 4.815L4.815 7.1475L6.3825 8.715C6.9375 9.27 7.0725 10.1175 6.7125 10.83C6.51 11.235 6.3375 11.655 6.195 12.09C5.9475 12.84 5.25 13.35 4.47 13.35H2.25V16.65H4.47C5.2575 16.65 5.9475 17.16 6.195 17.91C6.3375 18.345 6.51 18.765 6.7125 19.17C7.0725 19.8825 6.9375 20.73 6.3825 21.285L4.815 22.8525L7.1475 25.185L8.715 23.6175C9.27 23.0625 10.1175 22.9275 10.83 23.2875C11.235 23.49 11.655 23.6625 12.0825 23.805C12.84 24.0525 13.3425 24.75 13.3425 25.53V27.75H13.35ZM15 20.985C11.7 20.985 9.015 18.3 9.015 15C9.015 11.7 11.7 9.015 15 9.015C18.3 9.015 20.985 11.7 20.985 15C20.985 18.3 18.3 20.985 15 20.985ZM15 11.265C12.945 11.265 11.265 12.9375 11.265 15C11.265 17.0625 12.9375 18.735 15 18.735C17.0625 18.735 18.735 17.0625 18.735 15C18.735 12.9375 17.055 11.265 15 11.265Z" fill="#65676D"/>
</svg>
