<svg width="30" height="28" viewBox="0 0 30 28" fill="none" xmlns="http://www.w3.org/2000/svg">
<g clip-path="url(#clip0_7_122)">
<path d="M28.875 5.75H1.125V26.375H28.875V5.75Z" stroke="#65676D" stroke-width="2.25" stroke-miterlimit="10"/>
<path d="M6.75 0.5V9.5" stroke="#65676D" stroke-width="2.25" stroke-miterlimit="10"/>
<path d="M23.25 0.5V9.5" stroke="#65676D" stroke-width="2.25" stroke-miterlimit="10"/>
<path d="M9.75 11H3.75V17H9.75V11Z" fill="#65676D"/>
<path d="M16.5 11H13.5V14H16.5V11Z" fill="#65676D"/>
<path d="M21.375 11H18.375V14H21.375V11Z" fill="#65676D"/>
<path d="M26.25 11H23.25V14H26.25V11Z" fill="#65676D"/>
<path d="M16.5 15.5H13.5V18.5H16.5V15.5Z" fill="#65676D"/>
<path d="M21.375 15.5H18.375V18.5H21.375V15.5Z" fill="#65676D"/>
<path d="M26.25 15.5H23.25V18.5H26.25V15.5Z" fill="#65676D"/>
<path d="M16.5 20H13.5V23H16.5V20Z" fill="#65676D"/>
<path d="M11.625 20H8.625V23H11.625V20Z" fill="#65676D"/>
<path d="M6.75 20H3.75V23H6.75V20Z" fill="#65676D"/>
<path d="M21.375 20H18.375V23H21.375V20Z" fill="#65676D"/>
<path d="M26.25 20H23.25V23H26.25V20Z" fill="#65676D"/>
</g>
<defs>
<clipPath id="clip0_7_122">
<rect width="30" height="27" fill="white" transform="translate(0 0.5)"/>
</clipPath>
</defs>
</svg>
